<svg xmlns="http://www.w3.org/2000/svg" viewBox="0 0 64 64"><title>Artboard-16</title><g id="Locked_Folder" data-name="Locked Folder"><path d="M61,39H59V37a6,6,0,0,0-12,0v2H45a3.0033,3.0033,0,0,0-3,3V56a3.0033,3.0033,0,0,0,3,3H61a3.0033,3.0033,0,0,0,3-3V42A3.0033,3.0033,0,0,0,61,39ZM49,37a4,4,0,0,1,8,0v2H49ZM62,56a1.0013,1.0013,0,0,1-1,1H45a1.0013,1.0013,0,0,1-1-1V42a1.0013,1.0013,0,0,1,1-1H61a1.0013,1.0013,0,0,1,1,1Z" style="fill:#19191c"/><path d="M53,44a2.9926,2.9926,0,0,0-1,5.8157V53a1,1,0,0,0,2,0V49.8157A2.9926,2.9926,0,0,0,53,44Zm0,4a1,1,0,1,1,1-1A1.0013,1.0013,0,0,1,53,48Z" style="fill:#19191c"/><path d="M39,47H5a3.0033,3.0033,0,0,1-3-3V16H49a3.0033,3.0033,0,0,1,3,3v9a1,1,0,0,0,2,0V19a5.0059,5.0059,0,0,0-5-5H25.7209L23.86,8.4185A4.9939,4.9939,0,0,0,19.1172,5H5a5.0059,5.0059,0,0,0-5,5V44a5.0059,5.0059,0,0,0,5,5H39a1,1,0,0,0,0-2ZM2,10A3.0033,3.0033,0,0,1,5,7H19.1172a2.9956,2.9956,0,0,1,2.8457,2.0513L23.6128,14H2Z" style="fill:#19191c"/></g></svg>